<svg class="generator__canvas" viewBox="0 0 200 200" xmlns="http://www.w3.org/2000/svg" version="1.1" xmlns:xlink="http://www.w3.org/1999/xlink" xmlns:svgjs="http://svgjs.dev/svgjs"><circle r="5" cx="5" cy="5" fill="#1a1a1a" transform="matrix(0.5276364814966075,0,0,0.5276364814966075,2.361817592516963,2.361817592516963)"></circle><circle r="5" cx="5" cy="15" fill="#1a1a1a" transform="matrix(0.509451854996047,0,0,0.509451854996047,2.4527407250197655,7.3582221750592955)"></circle><circle r="5" cx="5" cy="25" fill="#1a1a1a" transform="matrix(0.488697306019241,0,0,0.488697306019241,2.556513469903795,12.782567349518976)"></circle><circle r="5" cx="5" cy="35" fill="#1a1a1a" transform="matrix(0.46597678621936056,0,0,0.46597678621936056,2.670116068903197,18.69081248232238)"></circle><circle r="5" cx="5" cy="45" fill="#1a1a1a" transform="matrix(0.44193175729081974,0,0,0.44193175729081974,2.790341213545901,25.113070921913113)"></circle><circle r="5" cx="5" cy="55" fill="#1a1a1a" transform="matrix(0.41720854232832316,0,0,0.41720854232832316,2.913957288358384,32.05353017194223)"></circle><circle r="5" cx="5" cy="65" fill="#1a1a1a" transform="matrix(0.39242958732378813,0,0,0.39242958732378813,3.0378520633810595,39.49207682395377)"></circle><circle r="5" cx="5" cy="75" fill="#1a1a1a" transform="matrix(0.36817249040736555,0,0,0.36817249040736555,3.159137547963172,47.38706321944758)"></circle><circle r="5" cx="5" cy="85" fill="#1a1a1a" transform="matrix(0.34496117550557404,0,0,0.34496117550557404,3.2751941224721297,55.67830008202621)"></circle><circle r="5" cx="5" cy="95" fill="#1a1a1a" transform="matrix(0.3232715702178205,0,0,0.3232715702178205,3.3836421489108974,64.28920082930705)"></circle><circle r="5" cx="5" cy="105" fill="#1a1a1a" transform="matrix(0.303529551399729,0,0,0.303529551399729,3.482352243001355,73.12939710302845)"></circle><circle r="5" cx="5" cy="115" fill="#1a1a1a" transform="matrix(0.286100855991792,0,0,0.286100855991792,3.56949572004104,82.09840156094393)"></circle><circle r="5" cx="5" cy="125" fill="#1a1a1a" transform="matrix(0.2712701875230183,0,0,0.2712701875230183,3.6436490623849087,91.09122655962271)"></circle><circle r="5" cx="5" cy="135" fill="#1a1a1a" transform="matrix(0.25921924924831286,0,0,0.25921924924831286,3.7039037537584356,100.00540135147776)"></circle><circle r="5" cx="5" cy="145" fill="#1a1a1a" transform="matrix(0.2500187656419087,0,0,0.2500187656419087,3.7499061717904563,108.74727898192324)"></circle><circle r="5" cx="5" cy="155" fill="#1a1a1a" transform="matrix(0.24363362319169635,0,0,0.24363362319169635,3.781831884041518,117.23678840528706)"></circle><circle r="5" cx="5" cy="165" fill="#1a1a1a" transform="matrix(0.23994004264543636,0,0,0.23994004264543636,3.8002997867728183,125.409892963503)"></circle><circle r="5" cx="5" cy="175" fill="#1a1a1a" transform="matrix(0.23875409351299268,0,0,0.23875409351299268,3.8062295324350366,133.21803363522628)"></circle><circle r="5" cx="5" cy="185" fill="#1a1a1a" transform="matrix(0.23987123000081728,0,0,0.23987123000081728,3.8006438499959136,140.6238224498488)"></circle><circle r="5" cx="5" cy="195" fill="#1a1a1a" transform="matrix(0.24311600503317018,0,0,0.24311600503317018,3.784419974834149,147.5923790185318)"></circle><circle r="5" cx="15" cy="5" fill="#1a1a1a" transform="matrix(0.5105943914161943,0,0,0.5105943914161943,7.341084128757085,2.4470280429190283)"></circle><circle r="5" cx="15" cy="15" fill="#1a1a1a" transform="matrix(0.4936713427352313,0,0,0.4936713427352313,7.594929858971531,7.594929858971531)"></circle><circle r="5" cx="15" cy="25" fill="#1a1a1a" transform="matrix(0.47425790951477514,0,0,0.47425790951477514,7.886131357278373,13.143552262130621)"></circle><circle r="5" cx="15" cy="35" fill="#1a1a1a" transform="matrix(0.45297782457546887,0,0,0.45297782457546887,8.205332631367966,19.14577613985859)"></circle><circle r="5" cx="15" cy="45" fill="#1a1a1a" transform="matrix(0.43048520980272253,0,0,0.43048520980272253,8.542721852959161,25.628165558877487)"></circle><circle r="5" cx="15" cy="55" fill="#1a1a1a" transform="matrix(0.40742920998368587,0,0,0.40742920998368587,8.888561850244713,32.59139345089728)"></circle><circle r="5" cx="15" cy="65" fill="#1a1a1a" transform="matrix(0.3844223719477867,0,0,0.3844223719477867,9.2336644207832,40.012545823393864)"></circle><circle r="5" cx="15" cy="75" fill="#1a1a1a" transform="matrix(0.3620166168318561,0,0,0.3620166168318561,9.569750747522159,47.84875373761079)"></circle><circle r="5" cx="15" cy="85" fill="#1a1a1a" transform="matrix(0.3406911824527077,0,0,0.3406911824527077,9.889632263209386,56.04124949151985)"></circle><circle r="5" cx="15" cy="95" fill="#1a1a1a" transform="matrix(0.32085745086634937,0,0,0.32085745086634937,10.18713823700476,64.51854216769681)"></circle><circle r="5" cx="15" cy="105" fill="#1a1a1a" transform="matrix(0.30287647115934385,0,0,0.30287647115934385,10.456852932609841,73.1979705282689)"></circle><circle r="5" cx="15" cy="115" fill="#1a1a1a" transform="matrix(0.2870456307235828,0,0,0.2870456307235828,10.694315539146258,81.98975246678798)"></circle><circle r="5" cx="15" cy="125" fill="#1a1a1a" transform="matrix(0.27358450908465304,0,0,0.27358450908465304,10.896232363730205,90.80193636441837)"></circle><circle r="5" cx="15" cy="135" fill="#1a1a1a" transform="matrix(0.26263235473360963,0,0,0.26263235473360963,11.060514678995855,99.54463211096271)"></circle><circle r="5" cx="15" cy="145" fill="#1a1a1a" transform="matrix(0.2542398508067321,0,0,0.2542398508067321,11.186402237899019,108.13522163302385)"></circle><circle r="5" cx="15" cy="155" fill="#1a1a1a" transform="matrix(0.24837254760018396,0,0,0.24837254760018396,11.274411785997241,116.50225512197149)"></circle><circle r="5" cx="15" cy="165" fill="#1a1a1a" transform="matrix(0.24492776683669756,0,0,0.24492776683669756,11.326083497449536,124.5869184719449)"></circle><circle r="5" cx="15" cy="175" fill="#1a1a1a" transform="matrix(0.24376426549880353,0,0,0.24376426549880353,11.343536017517946,132.34125353770938)"></circle><circle r="5" cx="15" cy="185" fill="#1a1a1a" transform="matrix(0.24474430881965561,0,0,0.24474430881965561,11.328835367705166,139.72230286836373)"></circle><circle r="5" cx="15" cy="195" fill="#1a1a1a" transform="matrix(0.2477730397855721,0,0,0.2477730397855721,11.28340440321642,146.68425724181344)"></circle><circle r="5" cx="25" cy="5" fill="#1a1a1a" transform="matrix(0.494626870883826,0,0,0.494626870883826,12.63432822790435,2.52686564558087)"></circle><circle r="5" cx="25" cy="15" fill="#1a1a1a" transform="matrix(0.47928297511958096,0,0,0.47928297511958096,13.017925622010477,7.810755373206286)"></circle><circle r="5" cx="25" cy="25" fill="#1a1a1a" transform="matrix(0.4615568757065101,0,0,0.4615568757065101,13.461078107337247,13.461078107337247)"></circle><circle r="5" cx="25" cy="35" fill="#1a1a1a" transform="matrix(0.44208487342869285,0,0,0.44208487342869285,13.94787816428268,19.52702942999575)"></circle><circle r="5" cx="25" cy="45" fill="#1a1a1a" transform="matrix(0.42152598738967595,0,0,0.42152598738967595,14.4618503152581,26.031330567464583)"></circle><circle r="5" cx="25" cy="55" fill="#1a1a1a" transform="matrix(0.40052430779029125,0,0,0.40052430779029125,14.98689230524272,32.97116307153398)"></circle><circle r="5" cx="25" cy="65" fill="#1a1a1a" transform="matrix(0.37967497526792054,0,0,0.37967497526792054,15.508125618301987,40.321126607585164)"></circle><circle r="5" cx="25" cy="75" fill="#1a1a1a" transform="matrix(0.35949762819758857,0,0,0.35949762819758857,16.012559295060285,48.037677885180855)"></circle><circle r="5" cx="25" cy="85" fill="#1a1a1a" transform="matrix(0.3404216986107993,0,0,0.3404216986107993,16.48945753473002,56.06415561808206)"></circle><circle r="5" cx="25" cy="95" fill="#1a1a1a" transform="matrix(0.3227885069246277,0,0,0.3227885069246277,16.930287326884308,64.33509184216037)"></circle><circle r="5" cx="25" cy="105" fill="#1a1a1a" transform="matrix(0.30687507312004514,0,0,0.30687507312004514,17.32812317199887,72.77811732239526)"></circle><circle r="5" cx="25" cy="115" fill="#1a1a1a" transform="matrix(0.29291535697245874,0,0,0.29291535697245874,17.67711607568853,81.31473394816724)"></circle><circle r="5" cx="25" cy="125" fill="#1a1a1a" transform="matrix(0.28107378441612224,0,0,0.28107378441612224,17.973155389596943,89.86577694798473)"></circle><circle r="5" cx="25" cy="135" fill="#1a1a1a" transform="matrix(0.27143621964382453,0,0,0.27143621964382453,18.214094508904388,98.35611034808369)"></circle><circle r="5" cx="25" cy="145" fill="#1a1a1a" transform="matrix(0.2640202234196429,0,0,0.2640202234196429,18.39949441450893,106.7170676041518)"></circle><circle r="5" cx="25" cy="155" fill="#1a1a1a" transform="matrix(0.258786072116028,0,0,0.258786072116028,18.5303481970993,114.88815882201567)"></circle><circle r="5" cx="25" cy="165" fill="#1a1a1a" transform="matrix(0.2556538405655277,0,0,0.2556538405655277,18.608653985861807,122.81711630668792)"></circle><circle r="5" cx="25" cy="175" fill="#1a1a1a" transform="matrix(0.25453427570365905,0,0,0.25453427570365905,18.636643107408524,130.45650175185966)"></circle><circle r="5" cx="25" cy="185" fill="#1a1a1a" transform="matrix(0.2553695595155609,0,0,0.2553695595155609,18.61576101211098,137.75663148962124)"></circle><circle r="5" cx="25" cy="195" fill="#1a1a1a" transform="matrix(0.25812120296529373,0,0,0.25812120296529373,18.546969925867657,144.66636542176772)"></circle><circle r="5" cx="35" cy="5" fill="#1a1a1a" transform="matrix(0.48085290877265596,0,0,0.48085290877265596,18.17014819295704,2.5957354561367203)"></circle><circle r="5" cx="35" cy="15" fill="#1a1a1a" transform="matrix(0.46731399284513464,0,0,0.46731399284513464,18.644010250420287,7.990290107322981)"></circle><circle r="5" cx="35" cy="25" fill="#1a1a1a" transform="matrix(0.4515240141836912,0,0,0.4515240141836912,19.196659503570807,13.711899645407719)"></circle><circle r="5" cx="35" cy="35" fill="#1a1a1a" transform="matrix(0.4341254764607012,0,0,0.4341254764607012,19.805608323875457,19.805608323875457)"></circle><circle r="5" cx="35" cy="45" fill="#1a1a1a" transform="matrix(0.4157754654998964,0,0,0.4157754654998964,20.447858707503627,26.29010405250466)"></circle><circle r="5" cx="35" cy="55" fill="#1a1a1a" transform="matrix(0.39710615038037694,0,0,0.39710615038037694,21.101284736686807,33.15916172907927)"></circle><circle r="5" cx="35" cy="65" fill="#1a1a1a" transform="matrix(0.3786888427780095,0,0,0.3786888427780095,21.74589050276967,40.38522521942938)"></circle><circle r="5" cx="35" cy="75" fill="#1a1a1a" transform="matrix(0.36100545288851554,0,0,0.36100545288851554,22.364809148901955,47.92459103336134)"></circle><circle r="5" cx="35" cy="85" fill="#1a1a1a" transform="matrix(0.3444317296257736,0,0,0.3444317296257736,22.944889463097923,55.72330298180924)"></circle><circle r="5" cx="35" cy="95" fill="#1a1a1a" transform="matrix(0.3292372524191508,0,0,0.3292372524191508,23.47669616532972,63.722461020180674)"></circle><circle r="5" cx="35" cy="105" fill="#1a1a1a" transform="matrix(0.31560775184489737,0,0,0.31560775184489737,23.953728685428594,71.86118605628577)"></circle><circle r="5" cx="35" cy="115" fill="#1a1a1a" transform="matrix(0.3036898869369768,0,0,0.3036898869369768,24.37085395720581,80.07566300224767)"></circle><circle r="5" cx="35" cy="125" fill="#1a1a1a" transform="matrix(0.29359599365154143,0,0,0.29359599365154143,24.72414022219605,88.30050079355732)"></circle><circle r="5" cx="35" cy="135" fill="#1a1a1a" transform="matrix(0.28537501986535707,0,0,0.28537501986535707,25.011874304712503,96.47437231817679)"></circle><circle r="5" cx="35" cy="145" fill="#1a1a1a" transform="matrix(0.27901903786395255,0,0,0.27901903786395255,25.23433367476166,104.54223950972688)"></circle><circle r="5" cx="35" cy="155" fill="#1a1a1a" transform="matrix(0.2744821190407717,0,0,0.2744821190407717,25.39312583357299,112.45527154868039)"></circle><circle r="5" cx="35" cy="165" fill="#1a1a1a" transform="matrix(0.2717097576960652,0,0,0.2717097576960652,25.490158480637717,120.16788998014924)"></circle><circle r="5" cx="35" cy="175" fill="#1a1a1a" transform="matrix(0.27067460845784086,0,0,0.27067460845784086,25.52638870397557,127.63194351987785)"></circle><circle r="5" cx="35" cy="185" fill="#1a1a1a" transform="matrix(0.27138303607770026,0,0,0.27138303607770026,25.50159373728049,134.79413832562545)"></circle><circle r="5" cx="35" cy="195" fill="#1a1a1a" transform="matrix(0.27381629165792415,0,0,0.27381629165792415,25.416429791972654,141.6058231267048)"></circle><circle r="5" cx="45" cy="5" fill="#1a1a1a" transform="matrix(0.47025362245763325,0,0,0.47025362245763325,23.838586989406505,2.6487318877118335)"></circle><circle r="5" cx="45" cy="15" fill="#1a1a1a" transform="matrix(0.45864264699270196,0,0,0.45864264699270196,24.361080885328413,8.12036029510947)"></circle><circle r="5" cx="45" cy="25" fill="#1a1a1a" transform="matrix(0.4449287719431123,0,0,0.4449287719431123,24.978205262559946,13.876780701422192)"></circle><circle r="5" cx="45" cy="35" fill="#1a1a1a" transform="matrix(0.4297554013081353,0,0,0.4297554013081353,25.661006941133913,19.958560954215265)"></circle><circle r="5" cx="45" cy="45" fill="#1a1a1a" transform="matrix(0.41377201942681696,0,0,0.41377201942681696,26.380259125793238,26.380259125793238)"></circle><circle r="5" cx="45" cy="55" fill="#1a1a1a" transform="matrix(0.39759326415792,0,0,0.39759326415792,27.108303112893598,33.1323704713144)"></circle><circle r="5" cx="45" cy="65" fill="#1a1a1a" transform="matrix(0.38176154471711543,0,0,0.38176154471711543,27.820730487729804,40.1854995933875)"></circle><circle r="5" cx="45" cy="75" fill="#1a1a1a" transform="matrix(0.36671704282421047,0,0,0.36671704282421047,28.497733072910528,47.496221788184215)"></circle><circle r="5" cx="45" cy="85" fill="#1a1a1a" transform="matrix(0.3527794952561137,0,0,0.3527794952561137,29.124922713474884,55.01374290323034)"></circle><circle r="5" cx="45" cy="95" fill="#1a1a1a" transform="matrix(0.34014674562521396,0,0,0.34014674562521396,29.69339644686537,62.686059165604675)"></circle><circle r="5" cx="45" cy="105" fill="#1a1a1a" transform="matrix(0.32891567320789394,0,0,0.32891567320789394,30.198794705644772,70.46385431317114)"></circle><circle r="5" cx="45" cy="115" fill="#1a1a1a" transform="matrix(0.31913147063419944,0,0,0.31913147063419944,30.639083821461025,78.29988087706707)"></circle><circle r="5" cx="45" cy="125" fill="#1a1a1a" transform="matrix(0.31083950948495587,0,0,0.31083950948495587,31.012222073176986,86.14506131438051)"></circle><circle r="5" cx="45" cy="135" fill="#1a1a1a" transform="matrix(0.3040581285773007,0,0,0.3040581285773007,31.31738421402147,93.9521526420644)"></circle><circle r="5" cx="45" cy="145" fill="#1a1a1a" transform="matrix(0.29876933768968067,0,0,0.29876933768968067,31.55537980396437,101.67844603499631)"></circle><circle r="5" cx="45" cy="155" fill="#1a1a1a" transform="matrix(0.29494179966067136,0,0,0.29494179966067136,31.727619015269788,109.28402105259593)"></circle><circle r="5" cx="45" cy="165" fill="#1a1a1a" transform="matrix(0.29256394850126005,0,0,0.29256394850126005,31.834622317443298,116.72694849729208)"></circle><circle r="5" cx="45" cy="175" fill="#1a1a1a" transform="matrix(0.2916643743470145,0,0,0.2916643743470145,31.875103154384348,123.95873448927247)"></circle><circle r="5" cx="45" cy="185" fill="#1a1a1a" transform="matrix(0.2922636393609517,0,0,0.2922636393609517,31.848136228757177,130.93122671822394)"></circle><circle r="5" cx="45" cy="195" fill="#1a1a1a" transform="matrix(0.2943484915406351,0,0,0.2943484915406351,31.754317880671422,137.60204414957616)"></circle><circle r="5" cx="55" cy="5" fill="#1a1a1a" transform="matrix(0.4636046951785255,0,0,0.4636046951785255,29.501741765181098,2.6819765241073728)"></circle><circle r="5" cx="55" cy="15" fill="#1a1a1a" transform="matrix(0.45393557369431475,0,0,0.45393557369431475,30.03354344681269,8.190966394585278)"></circle><circle r="5" cx="55" cy="25" fill="#1a1a1a" transform="matrix(0.44232294405388095,0,0,0.44232294405388095,30.672238077036546,13.941926398652976)"></circle><circle r="5" cx="55" cy="35" fill="#1a1a1a" transform="matrix(0.42940707495909114,0,0,0.42940707495909114,31.382610877249988,19.97075237643181)"></circle><circle r="5" cx="55" cy="45" fill="#1a1a1a" transform="matrix(0.415825567535075,0,0,0.415825567535075,32.129593785570876,26.287849460921624)"></circle><circle r="5" cx="55" cy="55" fill="#1a1a1a" transform="matrix(0.40217142014217233,0,0,0.40217142014217233,32.88057189218053,32.88057189218053)"></circle><circle r="5" cx="55" cy="65" fill="#1a1a1a" transform="matrix(0.38895468333478433,0,0,0.38895468333478433,33.607492416586865,39.717945583239015)"></circle><circle r="5" cx="55" cy="75" fill="#1a1a1a" transform="matrix(0.376571547292963,0,0,0.376571547292963,34.28856489888703,46.757133953027775)"></circle><circle r="5" cx="55" cy="85" fill="#1a1a1a" transform="matrix(0.3652852735891753,0,0,0.3652852735891753,34.90930995259536,53.9507517449201)"></circle><circle r="5" cx="55" cy="95" fill="#1a1a1a" transform="matrix(0.3552239829703455,0,0,0.3552239829703455,35.462680936630996,61.25372161781718)"></circle><circle r="5" cx="55" cy="105" fill="#1a1a1a" transform="matrix(0.34640094093401164,0,0,0.34640094093401164,35.94794824862936,68.62790120192878)"></circle><circle r="5" cx="55" cy="115" fill="#1a1a1a" transform="matrix(0.33876364325723535,0,0,0.33876364325723535,36.36799962085206,76.04218102541793)"></circle><circle r="5" cx="55" cy="125" fill="#1a1a1a" transform="matrix(0.33227162313271924,0,0,0.33227162313271924,36.72506072770044,83.4660471084101)"></circle><circle r="5" cx="55" cy="135" fill="#1a1a1a" transform="matrix(0.32691566745326284,0,0,0.32691566745326284,37.019638290070546,90.86638489380951)"></circle><circle r="5" cx="55" cy="145" fill="#1a1a1a" transform="matrix(0.3226815328178526,0,0,0.3226815328178526,37.252515695018104,98.21117774141138)"></circle><circle r="5" cx="55" cy="155" fill="#1a1a1a" transform="matrix(0.31957119768428227,0,0,0.31957119768428227,37.42358412736448,105.46646435893625)"></circle><circle r="5" cx="55" cy="165" fill="#1a1a1a" transform="matrix(0.31762637421112877,0,0,0.31762637421112877,37.53054941838792,112.59164825516376)"></circle><circle r="5" cx="55" cy="175" fill="#1a1a1a" transform="matrix(0.3168905121663052,0,0,0.3168905121663052,37.57102183085321,119.54416037089659)"></circle><circle r="5" cx="55" cy="185" fill="#1a1a1a" transform="matrix(0.3173804317926002,0,0,0.3173804317926002,37.54407625140699,126.28462011836896)"></circle><circle r="5" cx="55" cy="195" fill="#1a1a1a" transform="matrix(0.31908493359979256,0,0,0.31908493359979256,37.45032865201141,132.77843794804045)"></circle><circle r="5" cx="65" cy="5" fill="#1a1a1a" transform="matrix(0.4614191183123815,0,0,0.4614191183123815,35.0077573096952,2.692904408438092)"></circle><circle r="5" cx="65" cy="15" fill="#1a1a1a" transform="matrix(0.4535957700277141,0,0,0.4535957700277141,35.516274948198586,8.196063449584289)"></circle><circle r="5" cx="65" cy="25" fill="#1a1a1a" transform="matrix(0.4439942949114859,0,0,0.4439942949114859,36.14037083075341,13.900142627212853)"></circle><circle r="5" cx="65" cy="35" fill="#1a1a1a" transform="matrix(0.43324925358479993,0,0,0.43324925358479993,36.83879851698801,19.836276124532002)"></circle><circle r="5" cx="65" cy="45" fill="#1a1a1a" transform="matrix(0.42198368869417907,0,0,0.42198368869417907,37.57106023487836,26.010734008761943)"></circle><circle r="5" cx="65" cy="55" fill="#1a1a1a" transform="matrix(0.4107665981598936,0,0,0.4107665981598936,38.300171119606915,32.40783710120586)"></circle><circle r="5" cx="65" cy="65" fill="#1a1a1a" transform="matrix(0.4000741074565026,0,0,0.4000741074565026,38.99518301532733,38.99518301532733)"></circle><circle r="5" cx="65" cy="75" fill="#1a1a1a" transform="matrix(0.3902581902890552,0,0,0.3902581902890552,39.63321763121141,45.73063572832086)"></circle><circle r="5" cx="65" cy="85" fill="#1a1a1a" transform="matrix(0.3815273666586875,0,0,0.3815273666586875,40.200721167185314,52.57017383401156)"></circle><circle r="5" cx="65" cy="95" fill="#1a1a1a" transform="matrix(0.3739444172227082,0,0,0.3739444172227082,40.693612880523965,59.47528036384272)"></circle><circle r="5" cx="65" cy="105" fill="#1a1a1a" transform="matrix(0.36744679304668726,0,0,0.36744679304668726,41.11595845196533,66.41808673009784)"></circle><circle r="5" cx="65" cy="115" fill="#1a1a1a" transform="matrix(0.36189607031955184,0,0,0.36189607031955184,41.47675542922913,73.38195191325154)"></circle><circle r="5" cx="65" cy="125" fill="#1a1a1a" transform="matrix(0.35716292693640417,0,0,0.35716292693640417,41.78440974913373,80.35463413294949)"></circle><circle r="5" cx="65" cy="135" fill="#1a1a1a" transform="matrix(0.35320455600184364,0,0,0.35320455600184364,42.04170385988016,87.31738493975111)"></circle><circle r="5" cx="65" cy="145" fill="#1a1a1a" transform="matrix(0.35002824913532876,0,0,0.35002824913532876,42.248163806203635,94.24590387537734)"></circle><circle r="5" cx="65" cy="155" fill="#1a1a1a" transform="matrix(0.34767961098679545,0,0,0.34767961098679545,42.400825285858296,101.1096602970467)"></circle><circle r="5" cx="65" cy="165" fill="#1a1a1a" transform="matrix(0.3462108036700579,0,0,0.3462108036700579,42.496297761446236,107.87521739444045)"></circle><circle r="5" cx="65" cy="175" fill="#1a1a1a" transform="matrix(0.3456550906498221,0,0,0.3456550906498221,42.53241910776157,114.51035913628114)"></circle><circle r="5" cx="65" cy="185" fill="#1a1a1a" transform="matrix(0.3460250689329795,0,0,0.3460250689329795,42.50837051935633,120.98536224739878)"></circle><circle r="5" cx="65" cy="195" fill="#1a1a1a" transform="matrix(0.34731235106339564,0,0,0.34731235106339564,42.424697180879285,127.27409154263785)"></circle><circle r="5" cx="75" cy="5" fill="#1a1a1a" transform="matrix(0.4639045455721998,0,0,0.4639045455721998,40.20715908208501,2.680477272139001)"></circle><circle r="5" cx="75" cy="15" fill="#1a1a1a" transform="matrix(0.4577254481830545,0,0,0.4577254481830545,40.670591386270914,8.134118277254181)"></circle><circle r="5" cx="75" cy="25" fill="#1a1a1a" transform="matrix(0.44993534724645834,0,0,0.44993534724645834,41.25484895651562,13.751616318838542)"></circle><circle r="5" cx="75" cy="35" fill="#1a1a1a" transform="matrix(0.44116217418659476,0,0,0.44116217418659476,41.91283693600539,19.559323903469185)"></circle><circle r="5" cx="75" cy="45" fill="#1a1a1a" transform="matrix(0.43201356160842685,0,0,0.43201356160842685,42.59898287936799,25.55938972762079)"></circle><circle r="5" cx="75" cy="55" fill="#1a1a1a" transform="matrix(0.42303414047703103,0,0,0.42303414047703103,43.27243946422267,31.733122273763293)"></circle><circle r="5" cx="75" cy="65" fill="#1a1a1a" transform="matrix(0.4146667129359771,0,0,0.4146667129359771,43.89999652980171,38.04666365916149)"></circle><circle r="5" cx="75" cy="75" fill="#1a1a1a" transform="matrix(0.40722116053037816,0,0,0.40722116053037816,44.45841296022164,44.45841296022164)"></circle><circle r="5" cx="75" cy="85" fill="#1a1a1a" transform="matrix(0.40085553732420615,0,0,0.40085553732420615,44.93583470068454,50.92727932744248)"></circle><circle r="5" cx="75" cy="95" fill="#1a1a1a" transform="matrix(0.39557441740652044,0,0,0.39557441740652044,45.33191869451097,57.420430346380556)"></circle><circle r="5" cx="75" cy="105" fill="#1a1a1a" transform="matrix(0.39125021656736203,0,0,0.39125021656736203,45.65623375744785,63.918727260426984)"></circle><circle r="5" cx="75" cy="115" fill="#1a1a1a" transform="matrix(0.38767388849125034,0,0,0.38767388849125034,45.92445836315622,70.41750282350621)"></circle><circle r="5" cx="75" cy="125" fill="#1a1a1a" transform="matrix(0.38464210614145833,0,0,0.38464210614145833,46.15184203939063,76.91973673231772)"></circle><circle r="5" cx="75" cy="135" fill="#1a1a1a" transform="matrix(0.3820720959816991,0,0,0.3820720959816991,46.34459280137257,83.42026704247061)"></circle><circle r="5" cx="75" cy="145" fill="#1a1a1a" transform="matrix(0.37999662448108307,0,0,0.37999662448108307,46.50025316391877,89.90048945024296)"></circle><circle r="5" cx="75" cy="155" fill="#1a1a1a" transform="matrix(0.37846173605967987,0,0,0.37846173605967987,46.61536979552401,96.33843091074962)"></circle><circle r="5" cx="75" cy="165" fill="#1a1a1a" transform="matrix(0.37750192607141814,0,0,0.37750192607141814,46.68735554464364,102.712182198216)"></circle><circle r="5" cx="75" cy="175" fill="#1a1a1a" transform="matrix(0.37713880614133644,0,0,0.37713880614133644,46.71458953939977,109.00070892526612)"></circle><circle r="5" cx="75" cy="185" fill="#1a1a1a" transform="matrix(0.37738056023752736,0,0,0.37738056023752736,46.69645798218545,115.18459635605744)"></circle><circle r="5" cx="75" cy="195" fill="#1a1a1a" transform="matrix(0.3782217392610195,0,0,0.3782217392610195,46.63336955542354,121.2467608441012)"></circle><circle r="5" cx="85" cy="5" fill="#1a1a1a" transform="matrix(0.47093962252347815,0,0,0.47093962252347815,44.97013208550436,2.645301887382609)"></circle><circle r="5" cx="85" cy="15" fill="#1a1a1a" transform="matrix(0.4661081046854857,0,0,0.4661081046854857,45.38081110173372,8.008378429717714)"></circle><circle r="5" cx="85" cy="25" fill="#1a1a1a" transform="matrix(0.4598316591569538,0,0,0.4598316591569538,45.914308971658926,13.504208521076155)"></circle><circle r="5" cx="85" cy="35" fill="#1a1a1a" transform="matrix(0.45273250190684877,0,0,0.45273250190684877,46.51773733791786,19.154362433260292)"></circle><circle r="5" cx="85" cy="45" fill="#1a1a1a" transform="matrix(0.4454040435648086,0,0,0.4454040435648086,47.14065629699127,24.956818039583613)"></circle><circle r="5" cx="85" cy="55" fill="#1a1a1a" transform="matrix(0.4383684261583143,0,0,0.4383684261583143,47.73868377654328,30.889736561292715)"></circle><circle r="5" cx="85" cy="65" fill="#1a1a1a" transform="matrix(0.4320381841431349,0,0,0.4320381841431349,48.27675434783353,36.91751803069623)"></circle><circle r="5" cx="85" cy="75" fill="#1a1a1a" transform="matrix(0.4266859032594018,0,0,0.4266859032594018,48.73169822295085,42.99855725554487)"></circle><circle r="5" cx="85" cy="85" fill="#1a1a1a" transform="matrix(0.42242635056333844,0,0,0.42242635056333844,49.093760202116236,49.093760202116236)"></circle><circle r="5" cx="85" cy="95" fill="#1a1a1a" transform="matrix(0.4192161790834042,0,0,0.4192161790834042,49.366624777910644,55.1744629870766)"></circle><circle r="5" cx="85" cy="105" fill="#1a1a1a" transform="matrix(0.41687697092941145,0,0,0.41687697092941145,49.56545747100002,61.227918052411795)"></circle><circle r="5" cx="85" cy="115" fill="#1a1a1a" transform="matrix(0.415148073344044,0,0,0.415148073344044,49.71241376575626,67.25797156543493)"></circle><circle r="5" cx="85" cy="125" fill="#1a1a1a" transform="matrix(0.4137760398494973,0,0,0.4137760398494973,49.82903661279273,73.27799501881285)"></circle><circle r="5" cx="85" cy="135" fill="#1a1a1a" transform="matrix(0.4126266248322698,0,0,0.4126266248322698,49.926736889257064,79.29540564764358)"></circle><circle r="5" cx="85" cy="145" fill="#1a1a1a" transform="matrix(0.4116983777160062,0,0,0.4116983777160062,50.005637894139475,85.3037352311791)"></circle><circle r="5" cx="85" cy="155" fill="#1a1a1a" transform="matrix(0.41101195764190857,0,0,0.41101195764190857,50.06398360043777,91.29314656550417)"></circle><circle r="5" cx="85" cy="165" fill="#1a1a1a" transform="matrix(0.4105827416257545,0,0,0.4105827416257545,50.10046696181087,97.25384763175052)"></circle><circle r="5" cx="85" cy="175" fill="#1a1a1a" transform="matrix(0.4104203629331448,0,0,0.4104203629331448,50.11426915068269,103.17643648669966)"></circle><circle r="5" cx="85" cy="185" fill="#1a1a1a" transform="matrix(0.4105284694139786,0,0,0.4105284694139786,50.10508009981182,109.05223315841397)"></circle><circle r="5" cx="85" cy="195" fill="#1a1a1a" transform="matrix(0.41090463224155516,0,0,0.41090463224155516,50.073106259467814,114.87359671289674)"></circle><circle r="5" cx="95" cy="5" fill="#1a1a1a" transform="matrix(0.48207380202843314,0,0,0.48207380202843314,49.20298880729885,2.5896309898578345)"></circle><circle r="5" cx="95" cy="15" fill="#1a1a1a" transform="matrix(0.4782142920399398,0,0,0.4782142920399398,49.56964225620572,7.826785619400903)"></circle><circle r="5" cx="95" cy="25" fill="#1a1a1a" transform="matrix(0.4730740633818186,0,0,0.4730740633818186,50.05796397872723,13.173148415454534)"></circle><circle r="5" cx="95" cy="35" fill="#1a1a1a" transform="matrix(0.46727254416437314,0,0,0.46727254416437314,50.60910830438455,18.64546095424694)"></circle><circle r="5" cx="95" cy="45" fill="#1a1a1a" transform="matrix(0.46139236679699364,0,0,0.46139236679699364,51.167725154285606,24.237343494135285)"></circle><circle r="5" cx="95" cy="55" fill="#1a1a1a" transform="matrix(0.45593756148416525,0,0,0.45593756148416525,51.685931659004304,29.92343411837091)"></circle><circle r="5" cx="95" cy="65" fill="#1a1a1a" transform="matrix(0.4512961990422303,0,0,0.4512961990422303,52.12686109098812,35.665747062255036)"></circle><circle r="5" cx="95" cy="75" fill="#1a1a1a" transform="matrix(0.44771137370056246,0,0,0.44771137370056246,52.46741949844657,41.421646972457815)"></circle><circle r="5" cx="95" cy="85" fill="#1a1a1a" transform="matrix(0.4452650264621677,0,0,0.4452650264621677,52.69982248609407,47.152472750715745)"></circle><circle r="5" cx="95" cy="95" fill="#1a1a1a" transform="matrix(0.4438797497911475,0,0,0.4438797497911475,52.83142376984099,52.83142376984099)"></circle><circle r="5" cx="95" cy="105" fill="#1a1a1a" transform="matrix(0.4433443848679519,0,0,0.4433443848679519,52.882283437544565,58.44883958886505)"></circle><circle r="5" cx="95" cy="115" fill="#1a1a1a" transform="matrix(0.4433679770229553,0,0,0.4433679770229553,52.88004218281925,64.01268264236015)"></circle><circle r="5" cx="95" cy="125" fill="#1a1a1a" transform="matrix(0.4436446632294906,0,0,0.4436446632294906,52.853756993198395,69.54441709631368)"></circle><circle r="5" cx="95" cy="135" fill="#1a1a1a" transform="matrix(0.44394032987684795,0,0,0.44394032987684795,52.825668661699446,75.06805546662552)"></circle><circle r="5" cx="95" cy="145" fill="#1a1a1a" transform="matrix(0.44418049248120983,0,0,0.44418049248120983,52.802853214285065,80.59382859022458)"></circle><circle r="5" cx="95" cy="155" fill="#1a1a1a" transform="matrix(0.44435808477488237,0,0,0.44435808477488237,52.78598194638617,86.12449685989323)"></circle><circle r="5" cx="95" cy="165" fill="#1a1a1a" transform="matrix(0.44446913129525734,0,0,0.44446913129525734,52.77543252695055,91.66259333628254)"></circle><circle r="5" cx="95" cy="175" fill="#1a1a1a" transform="matrix(0.44451114156028093,0,0,0.44451114156028093,52.771441551773314,97.21055022695084)"></circle><circle r="5" cx="95" cy="185" fill="#1a1a1a" transform="matrix(0.4444831725003289,0,0,0.4444831725003289,52.774098612468755,102.77061308743914)"></circle><circle r="5" cx="95" cy="195" fill="#1a1a1a" transform="matrix(0.4443858520335638,0,0,0.4443858520335638,52.78334405681144,108.34475885345506)"></circle><circle r="5" cx="105" cy="5" fill="#1a1a1a" transform="matrix(0.496555394288988,0,0,0.496555394288988,52.86168359965626,2.51722302855506)"></circle><circle r="5" cx="105" cy="15" fill="#1a1a1a" transform="matrix(0.49323582159033497,0,0,0.49323582159033497,53.210238733014826,7.601462676144975)"></circle><circle r="5" cx="105" cy="25" fill="#1a1a1a" transform="matrix(0.4887995878211475,0,0,0.4887995878211475,53.67604327877951,12.780010304471311)"></circle><circle r="5" cx="105" cy="35" fill="#1a1a1a" transform="matrix(0.48386845092976155,0,0,0.48386845092976155,54.19381265237504,18.064604217458346)"></circle><circle r="5" cx="105" cy="45" fill="#1a1a1a" transform="matrix(0.4790201821830632,0,0,0.4790201821830632,54.702880870778365,23.444091801762156)"></circle><circle r="5" cx="105" cy="55" fill="#1a1a1a" transform="matrix(0.474747836638447,0,0,0.474747836638447,55.15147715296307,28.888868984885416)"></circle><circle r="5" cx="105" cy="65" fill="#1a1a1a" transform="matrix(0.4714238786631369,0,0,0.4714238786631369,55.500492740370625,34.3574478868961)"></circle><circle r="5" cx="105" cy="75" fill="#1a1a1a" transform="matrix(0.4692730736603869,0,0,0.4692730736603869,55.72632726565938,39.80451947547098)"></circle><circle r="5" cx="105" cy="85" fill="#1a1a1a" transform="matrix(0.46835867716712937,0,0,0.46835867716712937,55.82233889745142,45.189512440794005)"></circle><circle r="5" cx="105" cy="95" fill="#1a1a1a" transform="matrix(0.468586992937003,0,0,0.468586992937003,55.79836574161468,50.48423567098472)"></circle><circle r="5" cx="105" cy="105" fill="#1a1a1a" transform="matrix(0.4697276587553808,0,0,0.4697276587553808,55.67859583068501,55.67859583068501)"></circle><circle r="5" cx="105" cy="115" fill="#1a1a1a" transform="matrix(0.4714389294477703,0,0,0.4714389294477703,55.498912407984115,60.78452311350641)"></circle><circle r="5" cx="105" cy="125" fill="#1a1a1a" transform="matrix(0.4733286314536476,0,0,0.4733286314536476,55.300493697367,65.83392106829405)"></circle><circle r="5" cx="105" cy="135" fill="#1a1a1a" transform="matrix(0.47505731684228686,0,0,0.47505731684228686,55.11898173155988,70.86726222629127)"></circle><circle r="5" cx="105" cy="145" fill="#1a1a1a" transform="matrix(0.4764604065641903,0,0,0.4764604065641903,54.971657310760015,75.9132410481924)"></circle><circle r="5" cx="105" cy="155" fill="#1a1a1a" transform="matrix(0.47749798863073306,0,0,0.47749798863073306,54.86271119377303,80.98781176223638)"></circle><circle r="5" cx="105" cy="165" fill="#1a1a1a" transform="matrix(0.47814679561883383,0,0,0.47814679561883383,54.79458646002245,86.10577872289242)"></circle><circle r="5" cx="105" cy="175" fill="#1a1a1a" transform="matrix(0.4783922508768917,0,0,0.4783922508768917,54.76881365792637,91.28135609654396)"></circle><circle r="5" cx="105" cy="185" fill="#1a1a1a" transform="matrix(0.47822883457932464,0,0,0.47822883457932464,54.78597236917091,96.52766560282494)"></circle><circle r="5" cx="105" cy="195" fill="#1a1a1a" transform="matrix(0.4776602219628714,0,0,0.4776602219628714,54.845676693898504,101.85625671724009)"></circle><circle r="5" cx="115" cy="5" fill="#1a1a1a" transform="matrix(0.5133929290641452,0,0,0.5133929290641452,55.959813157623294,2.433035354679274)"></circle><circle r="5" cx="115" cy="15" fill="#1a1a1a" transform="matrix(0.5101534586544769,0,0,0.5101534586544769,56.332352254735156,7.347698120182846)"></circle><circle r="5" cx="115" cy="25" fill="#1a1a1a" transform="matrix(0.5059661119449702,0,0,0.5059661119449702,56.81389712632843,12.350847201375744)"></circle><circle r="5" cx="115" cy="35" fill="#1a1a1a" transform="matrix(0.5014624594543738,0,0,0.5014624594543738,57.33181716274701,17.448813919096917)"></circle><circle r="5" cx="115" cy="45" fill="#1a1a1a" transform="matrix(0.49722402235741636,0,0,0.49722402235741636,57.81923742889712,22.624918993916264)"></circle><circle r="5" cx="115" cy="55" fill="#1a1a1a" transform="matrix(0.49374304460790647,0,0,0.49374304460790647,58.21954987009076,27.844132546565145)"></circle><circle r="5" cx="115" cy="65" fill="#1a1a1a" transform="matrix(0.4913886108607922,0,0,0.4913886108607922,58.490309751008894,33.05974029404851)"></circle><circle r="5" cx="115" cy="75" fill="#1a1a1a" transform="matrix(0.49038203208475833,0,0,0.49038203208475833,58.60606631025279,38.221347593643124)"></circle><circle r="5" cx="115" cy="85" fill="#1a1a1a" transform="matrix(0.49078266201496257,0,0,0.49078266201496257,58.55999386827931,43.28347372872818)"></circle><circle r="5" cx="115" cy="95" fill="#1a1a1a" transform="matrix(0.49247620322376656,0,0,0.49247620322376656,58.365236629266846,48.21476069374218)"></circle><circle r="5" cx="115" cy="105" fill="#1a1a1a" transform="matrix(0.4951818189491095,0,0,0.4951818189491095,58.05409082085241,53.0059090103435)"></circle><circle r="5" cx="115" cy="115" fill="#1a1a1a" transform="matrix(0.4984875653689397,0,0,0.4984875653689397,57.673929982571934,57.673929982571934)"></circle><circle r="5" cx="115" cy="125" fill="#1a1a1a" transform="matrix(0.5019163624219092,0,0,0.5019163624219092,57.27961832148044,62.26045469726135)"></circle><circle r="5" cx="115" cy="135" fill="#1a1a1a" transform="matrix(0.5050292120976699,0,0,0.5050292120976699,56.92164060876796,66.82105636681456)"></circle><circle r="5" cx="115" cy="145" fill="#1a1a1a" transform="matrix(0.5075632115771513,0,0,0.5075632115771513,56.6302306686276,71.40333432131305)"></circle><circle r="5" cx="115" cy="155" fill="#1a1a1a" transform="matrix(0.509437295579898,0,0,0.509437295579898,56.41471100831173,76.0372191851158)"></circle><circle r="5" cx="115" cy="165" fill="#1a1a1a" transform="matrix(0.510609253056566,0,0,0.510609253056566,56.279935898494905,80.74947324566661)"></circle><circle r="5" cx="115" cy="175" fill="#1a1a1a" transform="matrix(0.5110526412561638,0,0,0.5110526412561638,56.22894625554117,85.56578778017133)"></circle><circle r="5" cx="115" cy="185" fill="#1a1a1a" transform="matrix(0.5107574465500965,0,0,0.5107574465500965,56.2628936467389,90.50987238823215)"></circle><circle r="5" cx="115" cy="195" fill="#1a1a1a" transform="matrix(0.5097303362846614,0,0,0.5097303362846614,56.38101132726394,95.60258442449104)"></circle><circle r="5" cx="125" cy="5" fill="#1a1a1a" transform="matrix(0.5314553273850681,0,0,0.5314553273850681,58.5680840768665,2.3427233630746596)"></circle><circle r="5" cx="125" cy="15" fill="#1a1a1a" transform="matrix(0.5278435941082193,0,0,0.5278435941082193,59.01955073647258,7.08234608837671)"></circle><circle r="5" cx="125" cy="25" fill="#1a1a1a" transform="matrix(0.5234662402075544,0,0,0.5234662402075544,59.5667199740557,11.91334399481114)"></circle><circle r="5" cx="125" cy="35" fill="#1a1a1a" transform="matrix(0.5189746716080501,0,0,0.5189746716080501,60.128166048993734,16.835886493718245)"></circle><circle r="5" cx="125" cy="45" fill="#1a1a1a" transform="matrix(0.5149656895232431,0,0,0.5149656895232431,60.62928880959461,21.82654397145406)"></circle><circle r="5" cx="125" cy="55" fill="#1a1a1a" transform="matrix(0.511944141147588,0,0,0.511944141147588,61.0069823565515,26.84307223688266)"></circle><circle r="5" cx="125" cy="65" fill="#1a1a1a" transform="matrix(0.5102883360022917,0,0,0.5102883360022917,61.213957999713536,31.83125815985104)"></circle><circle r="5" cx="125" cy="75" fill="#1a1a1a" transform="matrix(0.5102160786097638,0,0,0.5102160786097638,61.22299017377952,36.733794104267716)"></circle><circle r="5" cx="125" cy="85" fill="#1a1a1a" transform="matrix(0.5117617527553238,0,0,0.5117617527553238,61.02978090558453,41.50025101579748)"></circle><circle r="5" cx="125" cy="95" fill="#1a1a1a" transform="matrix(0.5147686492759808,0,0,0.5147686492759808,60.6539188405024,46.09697831878183)"></circle><circle r="5" cx="125" cy="105" fill="#1a1a1a" transform="matrix(0.5189002355402413,0,0,0.5189002355402413,60.13747055746984,50.515475268274656)"></circle><circle r="5" cx="125" cy="115" fill="#1a1a1a" transform="matrix(0.5236758659821878,0,0,0.5236758659821878,59.54051675222652,54.7772754120484)"></circle><circle r="5" cx="125" cy="125" fill="#1a1a1a" transform="matrix(0.5285371172455344,0,0,0.5285371172455344,58.932860344308196,58.932860344308196)"></circle><circle r="5" cx="125" cy="135" fill="#1a1a1a" transform="matrix(0.5329516346058935,0,0,0.5329516346058935,58.38104567426332,63.05152932820438)"></circle><circle r="5" cx="125" cy="145" fill="#1a1a1a" transform="matrix(0.5365585814136767,0,0,0.5365585814136767,57.93017732329041,67.19900569501688)"></circle><circle r="5" cx="125" cy="155" fill="#1a1a1a" transform="matrix(0.5392268072417916,0,0,0.5392268072417916,57.596649094776055,71.4198448775223)"></circle><circle r="5" cx="125" cy="165" fill="#1a1a1a" transform="matrix(0.5408955642123601,0,0,0.5408955642123601,57.388054473454986,75.7522319049606)"></circle><circle r="5" cx="125" cy="175" fill="#1a1a1a" transform="matrix(0.5415269432563853,0,0,0.5415269432563853,57.30913209295184,80.23278493013258)"></circle><circle r="5" cx="125" cy="185" fill="#1a1a1a" transform="matrix(0.5411065876395575,0,0,0.5411065876395575,57.3616765450553,84.89528128668185)"></circle><circle r="5" cx="125" cy="195" fill="#1a1a1a" transform="matrix(0.5396440565214647,0,0,0.5396440565214647,57.5444929348169,89.76940897831437)"></circle><circle r="5" cx="135" cy="5" fill="#1a1a1a" transform="matrix(0.5496168906821155,0,0,0.5496168906821155,60.80171975791441,2.2519155465894225)"></circle><circle r="5" cx="135" cy="15" fill="#1a1a1a" transform="matrix(0.5452298905479214,0,0,0.5452298905479214,61.393964776030614,6.821551641781179)"></circle><circle r="5" cx="135" cy="25" fill="#1a1a1a" transform="matrix(0.5402863644997691,0,0,0.5402863644997691,62.06134079253117,11.492840887505773)"></circle><circle r="5" cx="135" cy="35" fill="#1a1a1a" transform="matrix(0.5354689055310683,0,0,0.5354689055310683,62.711697753305785,16.25858830641261)"></circle><circle r="5" cx="135" cy="45" fill="#1a1a1a" transform="matrix(0.5313970993720277,0,0,0.5313970993720277,63.26139158477626,21.08713052825875)"></circle><circle r="5" cx="135" cy="55" fill="#1a1a1a" transform="matrix(0.5285868424216129,0,0,0.5285868424216129,63.64077627308225,25.92772366681129)"></circle><circle r="5" cx="135" cy="65" fill="#1a1a1a" transform="matrix(0.5274125574248676,0,0,0.5274125574248676,63.79930474764288,30.718183767383607)"></circle><circle r="5" cx="135" cy="75" fill="#1a1a1a" transform="matrix(0.5280750851183891,0,0,0.5280750851183891,63.70986350901748,35.39436861612082)"></circle><circle r="5" cx="135" cy="85" fill="#1a1a1a" transform="matrix(0.5305793069450386,0,0,0.5305793069450386,63.37179356241978,39.900758909671715)"></circle><circle r="5" cx="135" cy="95" fill="#1a1a1a" transform="matrix(0.5347260563987642,0,0,0.5347260563987642,62.81198238616683,44.201024642117396)"></circle><circle r="5" cx="135" cy="105" fill="#1a1a1a" transform="matrix(0.5401234035655181,0,0,0.5401234035655181,62.08334051865505,48.28704262562059)"></circle><circle r="5" cx="135" cy="115" fill="#1a1a1a" transform="matrix(0.54622295471242,0,0,0.54622295471242,61.259901113823304,52.1843602080717)"></circle><circle r="5" cx="135" cy="125" fill="#1a1a1a" transform="matrix(0.5523873963445626,0,0,0.5523873963445626,60.42770149348405,55.951575456929675)"></circle><circle r="5" cx="135" cy="135" fill="#1a1a1a" transform="matrix(0.5579961309971533,0,0,0.5579961309971533,59.670522315384304,59.670522315384304)"></circle><circle r="5" cx="135" cy="145" fill="#1a1a1a" transform="matrix(0.5625953871593272,0,0,0.5625953871593272,59.04962273349082,63.42366886189755)"></circle><circle r="5" cx="135" cy="155" fill="#1a1a1a" transform="matrix(0.5659982770473133,0,0,0.5659982770473133,58.5902325986127,67.27026705766643)"></circle><circle r="5" cx="135" cy="165" fill="#1a1a1a" transform="matrix(0.568126454509988,0,0,0.568126454509988,58.302928641151624,71.25913500585197)"></circle><circle r="5" cx="135" cy="175" fill="#1a1a1a" transform="matrix(0.5689317023033418,0,0,0.5689317023033418,58.19422018904886,75.43695209691519)"></circle><circle r="5" cx="135" cy="185" fill="#1a1a1a" transform="matrix(0.5683955855514284,0,0,0.5683955855514284,58.26659595055716,79.84681667298574)"></circle><circle r="5" cx="135" cy="195" fill="#1a1a1a" transform="matrix(0.5665304111135907,0,0,0.5665304111135907,58.51839449966525,84.52656983284982)"></circle><circle r="5" cx="145" cy="5" fill="#1a1a1a" transform="matrix(0.5669472841479958,0,0,0.5669472841479958,62.79264379854061,2.165263579260021)"></circle><circle r="5" cx="145" cy="15" fill="#1a1a1a" transform="matrix(0.5614607288539317,0,0,0.5614607288539317,63.588194316179894,6.578089067191025)"></circle><circle r="5" cx="145" cy="25" fill="#1a1a1a" transform="matrix(0.5556439124513235,0,0,0.5556439124513235,64.43163269455809,11.108902188716913)"></circle><circle r="5" cx="145" cy="35" fill="#1a1a1a" transform="matrix(0.5502074781812234,0,0,0.5502074781812234,65.2199156637226,15.74273826365718)"></circle><circle r="5" cx="145" cy="45" fill="#1a1a1a" transform="matrix(0.5457916290653897,0,0,0.5457916290653897,65.8602137855185,20.439376692057465)"></circle><circle r="5" cx="145" cy="55" fill="#1a1a1a" transform="matrix(0.5429234945578716,0,0,0.5429234945578716,66.27609328910862,25.139207799317063)"></circle><circle r="5" cx="145" cy="65" fill="#1a1a1a" transform="matrix(0.5419772246886485,0,0,0.5419772246886485,66.41330242014597,29.771480395237845)"></circle><circle r="5" cx="145" cy="75" fill="#1a1a1a" transform="matrix(0.5431403907866836,0,0,0.5431403907866836,66.24464333593087,34.26447069099873)"></circle><circle r="5" cx="145" cy="85" fill="#1a1a1a" transform="matrix(0.5463907484064149,0,0,0.5463907484064149,65.77334148106983,38.556786385454735)"></circle><circle r="5" cx="145" cy="95" fill="#1a1a1a" transform="matrix(0.5514879248994311,0,0,0.5514879248994311,65.0342508895825,42.60864713455405)"></circle><circle r="5" cx="145" cy="105" fill="#1a1a1a" transform="matrix(0.5579851311718749,0,0,0.5579851311718749,64.09215598007815,46.41156122695314)"></circle><circle r="5" cx="145" cy="115" fill="#1a1a1a" transform="matrix(0.5652665645479774,0,0,0.5652665645479774,63.03634814054328,49.9943450769826)"></circle><circle r="5" cx="145" cy="125" fill="#1a1a1a" transform="matrix(0.572616767321054,0,0,0.572616767321054,61.97056873844717,53.42290408486825)"></circle><circle r="5" cx="145" cy="135" fill="#1a1a1a" transform="matrix(0.5793288335152887,0,0,0.5793288335152887,60.99731914028314,56.79060747543602)"></circle><circle r="5" cx="145" cy="145" fill="#1a1a1a" transform="matrix(0.5848586945652094,0,0,0.5848586945652094,60.19548928804463,60.19548928804463)"></circle><circle r="5" cx="145" cy="155" fill="#1a1a1a" transform="matrix(0.5889565059517903,0,0,0.5889565059517903,59.601306636990415,63.71174157747251)"></circle><circle r="5" cx="145" cy="165" fill="#1a1a1a" transform="matrix(0.5915214116884208,0,0,0.5915214116884208,59.22939530517898,67.39896707141058)"></circle><circle r="5" cx="145" cy="175" fill="#1a1a1a" transform="matrix(0.5924948812122893,0,0,0.5924948812122893,59.08824222421805,71.31339578784937)"></circle><circle r="5" cx="145" cy="185" fill="#1a1a1a" transform="matrix(0.5918585173309501,0,0,0.5918585173309501,59.180514987012245,75.50617429377424)"></circle><circle r="5" cx="145" cy="195" fill="#1a1a1a" transform="matrix(0.5896310235504137,0,0,0.5896310235504137,59.50350158519001,80.02195040766932)"></circle><circle r="5" cx="155" cy="5" fill="#1a1a1a" transform="matrix(0.5827045581544641,0,0,0.5827045581544641,64.68079348605806,2.0864772092276795)"></circle><circle r="5" cx="155" cy="15" fill="#1a1a1a" transform="matrix(0.5757698097698937,0,0,0.5757698097698937,65.75567948566648,6.363452853451594)"></circle><circle r="5" cx="155" cy="25" fill="#1a1a1a" transform="matrix(0.5687262186417307,0,0,0.5687262186417307,66.84743611053175,10.781844533956733)"></circle><circle r="5" cx="155" cy="35" fill="#1a1a1a" transform="matrix(0.5623231252165392,0,0,0.5623231252165392,67.83991559143644,15.31869061742113)"></circle><circle r="5" cx="155" cy="45" fill="#1a1a1a" transform="matrix(0.5572301191165923,0,0,0.5572301191165923,68.6293315369282,19.92464463975335)"></circle><circle r="5" cx="155" cy="55" fill="#1a1a1a" transform="matrix(0.5539919707134945,0,0,0.5539919707134945,69.13124453940836,24.530441610757805)"></circle><circle r="5" cx="155" cy="65" fill="#1a1a1a" transform="matrix(0.5529869653859223,0,0,0.5529869653859223,69.28702036518204,29.055847249915054)"></circle><circle r="5" cx="155" cy="75" fill="#1a1a1a" transform="matrix(0.5543922076069022,0,0,0.5543922076069022,69.06920782093016,33.42058442948233)"></circle><circle r="5" cx="155" cy="85" fill="#1a1a1a" transform="matrix(0.5581599486363917,0,0,0.5581599486363917,68.48520796135928,37.5564043659067)"></circle><circle r="5" cx="155" cy="95" fill="#1a1a1a" transform="matrix(0.5640095085063473,0,0,0.5640095085063473,67.57852618151617,41.419096691897)"></circle><circle r="5" cx="155" cy="105" fill="#1a1a1a" transform="matrix(0.5714399101779462,0,0,0.5714399101779462,66.42681392241835,44.99880943131566)"></circle><circle r="5" cx="155" cy="115" fill="#1a1a1a" transform="matrix(0.5797689212241758,0,0,0.5797689212241758,65.13581721025275,48.32657405921978)"></circle><circle r="5" cx="155" cy="125" fill="#1a1a1a" transform="matrix(0.5882048061456278,0,0,0.5882048061456278,63.8282550474277,51.474399231796525)"></circle><circle r="5" cx="155" cy="135" fill="#1a1a1a" transform="matrix(0.5959577304630069,0,0,0.5959577304630069,62.62655177823393,54.545706387494064)"></circle><circle r="5" cx="155" cy="145" fill="#1a1a1a" transform="matrix(0.6023983357469183,0,0,0.6023983357469183,61.62825795922767,57.65224131669686)"></circle><circle r="5" cx="155" cy="155" fill="#1a1a1a" transform="matrix(0.6072109252024498,0,0,0.6072109252024498,60.882306593620285,60.882306593620285)"></circle><circle r="5" cx="155" cy="165" fill="#1a1a1a" transform="matrix(0.6102636074470843,0,0,0.6102636074470843,60.40914084570193,64.30650477123109)"></circle><circle r="5" cx="155" cy="175" fill="#1a1a1a" transform="matrix(0.6114772739747598,0,0,0.6114772739747598,60.22102253391223,67.99147705441703)"></circle><circle r="5" cx="155" cy="185" fill="#1a1a1a" transform="matrix(0.610822519136425,0,0,0.610822519136425,60.32250953385412,71.99783395976137)"></circle><circle r="5" cx="155" cy="195" fill="#1a1a1a" transform="matrix(0.6082904094756434,0,0,0.6082904094756434,60.71498653127527,76.38337015224954)"></circle><circle r="5" cx="165" cy="5" fill="#1a1a1a" transform="matrix(0.5960137118429161,0,0,0.5960137118429161,66.65773754591885,2.0199314407854194)"></circle><circle r="5" cx="165" cy="15" fill="#1a1a1a" transform="matrix(0.5872342358822651,0,0,0.5872342358822651,68.10635107942626,6.191486461766024)"></circle><circle r="5" cx="165" cy="25" fill="#1a1a1a" transform="matrix(0.5785752337142114,0,0,0.5785752337142114,69.53508643715512,10.535619157144716)"></circle><circle r="5" cx="165" cy="35" fill="#1a1a1a" transform="matrix(0.570833072150849,0,0,0.570833072150849,70.81254309510992,15.020842474720286)"></circle><circle r="5" cx="165" cy="45" fill="#1a1a1a" transform="matrix(0.564712837231264,0,0,0.564712837231264,71.82238185684145,19.587922324593123)"></circle><circle r="5" cx="165" cy="55" fill="#1a1a1a" transform="matrix(0.5607811651183512,0,0,0.5607811651183512,72.47110775547205,24.157035918490685)"></circle><circle r="5" cx="165" cy="65" fill="#1a1a1a" transform="matrix(0.5594231787362248,0,0,0.5594231787362248,72.69517550852291,28.637493382145387)"></circle><circle r="5" cx="165" cy="75" fill="#1a1a1a" transform="matrix(0.5608070887162536,0,0,0.5608070887162536,72.46683036181815,32.939468346280975)"></circle><circle r="5" cx="165" cy="85" fill="#1a1a1a" transform="matrix(0.5648605139438007,0,0,0.5648605139438007,71.7980151992729,36.986856314776944)"></circle><circle r="5" cx="165" cy="95" fill="#1a1a1a" transform="matrix(0.571263104002848,0,0,0.571263104002848,70.74158783953008,40.73000511972944)"></circle><circle r="5" cx="165" cy="105" fill="#1a1a1a" transform="matrix(0.5794606031018577,0,0,0.5794606031018577,69.38900048819349,44.15663667430495)"></circle><circle r="5" cx="165" cy="115" fill="#1a1a1a" transform="matrix(0.5887060826314635,0,0,0.5887060826314635,67.86349636580852,47.29880049738169)"></circle><circle r="5" cx="165" cy="125" fill="#1a1a1a" transform="matrix(0.5981346873528881,0,0,0.5981346873528881,66.30777658677346,50.23316408088898)"></circle><circle r="5" cx="165" cy="135" fill="#1a1a1a" transform="matrix(0.6068788883453569,0,0,0.6068788883453569,64.86498342301611,53.07135007337682)"></circle><circle r="5" cx="165" cy="145" fill="#1a1a1a" transform="matrix(0.6142318838230785,0,0,0.6142318838230785,63.651739169192055,55.936376845653626)"></circle><circle r="5" cx="165" cy="155" fill="#1a1a1a" transform="matrix(0.6198154670023359,0,0,0.6198154670023359,62.73044794461457,58.92860261463794)"></circle><circle r="5" cx="165" cy="165" fill="#1a1a1a" transform="matrix(0.6234614686038302,0,0,0.6234614686038302,62.128857680368014,62.128857680368014)"></circle><circle r="5" cx="165" cy="175" fill="#1a1a1a" transform="matrix(0.6250624492826591,0,0,0.6250624492826591,61.86469586836125,65.61407137553466)"></circle><circle r="5" cx="165" cy="185" fill="#1a1a1a" transform="matrix(0.6245516821064846,0,0,0.6245516821064846,61.94897245243004,69.45793881030035)"></circle><circle r="5" cx="165" cy="195" fill="#1a1a1a" transform="matrix(0.6218255829259551,0,0,0.6218255829259551,62.398778817217405,73.74401132943875)"></circle><circle r="5" cx="175" cy="5" fill="#1a1a1a" transform="matrix(0.6059370446888791,0,0,0.6059370446888791,68.96101717944616,1.9703147765556044)"></circle><circle r="5" cx="175" cy="15" fill="#1a1a1a" transform="matrix(0.594918601790684,0,0,0.594918601790684,70.88924468663029,6.0762209731397405)"></circle><circle r="5" cx="175" cy="25" fill="#1a1a1a" transform="matrix(0.5842654052570173,0,0,0.5842654052570173,72.75355408002197,10.393364868574567)"></circle><circle r="5" cx="175" cy="35" fill="#1a1a1a" transform="matrix(0.5748261624678699,0,0,0.5748261624678699,74.40542156812278,14.881084313624555)"></circle><circle r="5" cx="175" cy="45" fill="#1a1a1a" transform="matrix(0.5673450353009959,0,0,0.5673450353009959,75.71461882232572,19.469473411455184)"></circle><circle r="5" cx="175" cy="55" fill="#1a1a1a" transform="matrix(0.5624126967512002,0,0,0.5624126967512002,76.57777806853997,24.06730167868399)"></circle><circle r="5" cx="175" cy="65" fill="#1a1a1a" transform="matrix(0.5604222285369602,0,0,0.5604222285369602,76.92611000603196,28.57255514509759)"></circle><circle r="5" cx="175" cy="75" fill="#1a1a1a" transform="matrix(0.5615334130496032,0,0,0.5615334130496032,76.73165271631943,32.88499402127976)"></circle><circle r="5" cx="175" cy="85" fill="#1a1a1a" transform="matrix(0.5656494798179855,0,0,0.5656494798179855,76.01134103185254,36.91979421547123)"></circle><circle r="5" cx="175" cy="95" fill="#1a1a1a" transform="matrix(0.5724109037604168,0,0,0.5724109037604168,74.82809184192706,40.6209641427604)"></circle><circle r="5" cx="175" cy="105" fill="#1a1a1a" transform="matrix(0.5812114198754317,0,0,0.5812114198754317,73.28800152179946,43.97280091307967)"></circle><circle r="5" cx="175" cy="115" fill="#1a1a1a" transform="matrix(0.5912420166839383,0,0,0.5912420166839383,71.5326470803108,47.0071680813471)"></circle><circle r="5" cx="175" cy="125" fill="#1a1a1a" transform="matrix(0.6015692986772708,0,0,0.6015692986772708,69.7253727314776,49.80383766534115)"></circle><circle r="5" cx="175" cy="135" fill="#1a1a1a" transform="matrix(0.6112552662487287,0,0,0.6112552662487287,68.03032840647248,52.48053905642162)"></circle><circle r="5" cx="175" cy="145" fill="#1a1a1a" transform="matrix(0.6195262327529966,0,0,0.6195262327529966,66.5829092682256,55.1686962508155)"></circle><circle r="5" cx="175" cy="155" fill="#1a1a1a" transform="matrix(0.62594989283837,0,0,0.62594989283837,65.45876875328526,57.977766610052655)"></circle><circle r="5" cx="175" cy="165" fill="#1a1a1a" transform="matrix(0.6303197161043208,0,0,0.6303197161043208,64.69404968174386,60.997246842787064)"></circle><circle r="5" cx="175" cy="175" fill="#1a1a1a" transform="matrix(0.6324895732670879,0,0,0.6324895732670879,64.31432467825962,64.31432467825962)"></circle><circle r="5" cx="175" cy="185" fill="#1a1a1a" transform="matrix(0.6322963716861316,0,0,0.6322963716861316,64.34813495492696,68.02517123806565)"></circle><circle r="5" cx="175" cy="195" fill="#1a1a1a" transform="matrix(0.6295230552853696,0,0,0.6295230552853696,64.83346532506033,72.24300421935294)"></circle><circle r="5" cx="185" cy="5" fill="#1a1a1a" transform="matrix(0.6116322724517972,0,0,0.6116322724517972,71.84802959641752,1.941838637741014)"></circle><circle r="5" cx="185" cy="15" fill="#1a1a1a" transform="matrix(0.5980258236771533,0,0,0.5980258236771533,74.36522261972664,6.0296126448427)"></circle><circle r="5" cx="185" cy="25" fill="#1a1a1a" transform="matrix(0.5850472829143758,0,0,0.5850472829143758,76.76625266084048,10.373817927140605)"></circle><circle r="5" cx="185" cy="35" fill="#1a1a1a" transform="matrix(0.573600126982615,0,0,0.573600126982615,78.88397650821624,14.923995555608474)"></circle><circle r="5" cx="185" cy="45" fill="#1a1a1a" transform="matrix(0.5644687694578039,0,0,0.5644687694578039,80.57327765030628,19.598905374398825)"></circle><circle r="5" cx="185" cy="55" fill="#1a1a1a" transform="matrix(0.5582681628537559,0,0,0.5582681628537559,81.72038987205515,24.295251043043425)"></circle><circle r="5" cx="185" cy="65" fill="#1a1a1a" transform="matrix(0.5553990135534803,0,0,0.5553990135534803,82.25118249260615,28.899064119023777)"></circle><circle r="5" cx="185" cy="75" fill="#1a1a1a" transform="matrix(0.5560121609976849,0,0,0.5560121609976849,82.1377502154283,33.29908792517363)"></circle><circle r="5" cx="185" cy="85" fill="#1a1a1a" transform="matrix(0.5599861895488452,0,0,0.5599861895488452,81.40255493346365,37.40117388834816)"></circle><circle r="5" cx="185" cy="95" fill="#1a1a1a" transform="matrix(0.5669228886417077,0,0,0.5669228886417077,80.11926560128407,41.14232557903777)"></circle><circle r="5" cx="185" cy="105" fill="#1a1a1a" transform="matrix(0.5761657543046437,0,0,0.5761657543046437,78.40933545364092,44.502595798012415)"></circle><circle r="5" cx="185" cy="115" fill="#1a1a1a" transform="matrix(0.5868473328908818,0,0,0.5868473328908818,76.43324341518688,47.51255671754859)"></circle><circle r="5" cx="185" cy="125" fill="#1a1a1a" transform="matrix(0.5979718458943393,0,0,0.5979718458943393,74.37520850954724,50.25351926320759)"></circle><circle r="5" cx="185" cy="135" fill="#1a1a1a" transform="matrix(0.6085402030415141,0,0,0.6085402030415141,72.42006243731988,52.847072589395594)"></circle><circle r="5" cx="185" cy="145" fill="#1a1a1a" transform="matrix(0.6177251872563931,0,0,0.6177251872563931,70.72084035756727,55.429847847823)"></circle><circle r="5" cx="185" cy="155" fill="#1a1a1a" transform="matrix(0.6250526837482542,0,0,0.6250526837482542,69.36525350657298,58.1168340190206)"></circle><circle r="5" cx="185" cy="165" fill="#1a1a1a" transform="matrix(0.6302778690064617,0,0,0.6302778690064617,68.39859423380459,61.00415161393383)"></circle><circle r="5" cx="185" cy="175" fill="#1a1a1a" transform="matrix(0.6331802850659043,0,0,0.6331802850659043,67.86164726280771,64.19345011346675)"></circle><circle r="5" cx="185" cy="185" fill="#1a1a1a" transform="matrix(0.6334605766089174,0,0,0.6334605766089174,67.80979332735028,67.80979332735028)"></circle><circle r="5" cx="185" cy="195" fill="#1a1a1a" transform="matrix(0.6308034239271916,0,0,0.6308034239271916,68.30136657346956,71.99333233419765)"></circle><circle r="5" cx="195" cy="5" fill="#1a1a1a" transform="matrix(0.6124632305755058,0,0,0.6124632305755058,75.56967003777638,1.937683847122471)"></circle><circle r="5" cx="195" cy="15" fill="#1a1a1a" transform="matrix(0.5959998801581803,0,0,0.5959998801581803,78.78002336915485,6.0600017976272955)"></circle><circle r="5" cx="195" cy="25" fill="#1a1a1a" transform="matrix(0.5804431638800007,0,0,0.5804431638800007,81.81358304339986,10.488920902999983)"></circle><circle r="5" cx="195" cy="35" fill="#1a1a1a" transform="matrix(0.5667509902801883,0,0,0.5667509902801883,84.4835568953633,15.16371534019341)"></circle><circle r="5" cx="195" cy="45" fill="#1a1a1a" transform="matrix(0.5557469172021843,0,0,0.5557469172021843,86.62935114557406,19.991388725901707)"></circle><circle r="5" cx="195" cy="55" fill="#1a1a1a" transform="matrix(0.5480686142579233,0,0,0.5480686142579233,88.12662021970496,24.856226215814218)"></circle><circle r="5" cx="195" cy="65" fill="#1a1a1a" transform="matrix(0.5441227506472147,0,0,0.5441227506472147,88.89606362379313,29.632021207931047)"></circle><circle r="5" cx="195" cy="75" fill="#1a1a1a" transform="matrix(0.5440498613555118,0,0,0.5440498613555118,88.9102770356752,34.19626039833661)"></circle><circle r="5" cx="195" cy="85" fill="#1a1a1a" transform="matrix(0.5477032717584465,0,0,0.5477032717584465,88.19786200710294,38.44522190053205)"></circle><circle r="5" cx="195" cy="95" fill="#1a1a1a" transform="matrix(0.5546467179476828,0,0,0.5546467179476828,86.84389000020185,42.30856179497013)"></circle><circle r="5" cx="195" cy="105" fill="#1a1a1a" transform="matrix(0.5641758876598807,0,0,0.5641758876598807,84.98570190632327,45.76153179571253)"></circle><circle r="5" cx="195" cy="115" fill="#1a1a1a" transform="matrix(0.5753697245388644,0,0,0.5753697245388644,82.80290371492144,48.832481678030604)"></circle><circle r="5" cx="195" cy="125" fill="#1a1a1a" transform="matrix(0.5871779865904687,0,0,0.5871779865904687,80.5002926148586,51.60275167619142)"></circle><circle r="5" cx="195" cy="135" fill="#1a1a1a" transform="matrix(0.5985522280999681,0,0,0.5985522280999681,78.28231552050622,54.19544920650431)"></circle><circle r="5" cx="195" cy="145" fill="#1a1a1a" transform="matrix(0.6086280257892854,0,0,0.6086280257892854,76.31753497108934,56.748936260553606)"></circle><circle r="5" cx="195" cy="155" fill="#1a1a1a" transform="matrix(0.6169043612848815,0,0,0.6169043612848815,74.70364954944812,59.37982400084337)"></circle><circle r="5" cx="195" cy="165" fill="#1a1a1a" transform="matrix(0.6230901038351462,0,0,0.6230901038351462,73.4974297521465,62.19013286720087)"></circle><circle r="5" cx="195" cy="175" fill="#1a1a1a" transform="matrix(0.626839747984482,0,0,0.626839747984482,72.766249143026,65.30304410271565)"></circle><circle r="5" cx="195" cy="185" fill="#1a1a1a" transform="matrix(0.6277240868728144,0,0,0.6277240868728144,72.59380305980119,68.87104392852933)"></circle><circle r="5" cx="195" cy="195" fill="#1a1a1a" transform="matrix(0.62534691555557,0,0,0.62534691555557,73.05735146666386,73.05735146666386)"></circle></svg>